<svg xmlns="http://www.w3.org/2000/svg" width="39.343" height="25.791" viewBox="0 0 39.343 25.791"><g id="icon-desktop" transform="translate(0)"><path id="Path_13" data-name="Path 13" d="M122.89,119.891c-.86-.453-1.7-.943-2.56-1.394a.6.6,0,0,1-.365-.626q.014-7.97.006-15.939a3.1,3.1,0,0,0-3.311-3.315l-16.016,0c-3.15,0-6.3-.006-9.448,0a3.012,3.012,0,0,0-2.967,2.072,4.89,4.89,0,0,0-.184,1.435q-.019,7.892,0,15.785a.576.576,0,0,1-.326.577c-.765.439-1.507.919-2.277,1.35a2.117,2.117,0,0,0-1.108,1.2v1.23a1.176,1.176,0,0,1,.076.174A2.426,2.426,0,0,0,86.9,124.4q5.528.007,11.056,0,11.4,0,22.8-.013a4.414,4.414,0,0,0,1.593-.3,2.154,2.154,0,0,0,1.228-1.534c.027-.1.063-.191.095-.287v-1.383A1.86,1.86,0,0,0,122.89,119.891ZM106.464,122.1c-1.636.025-3.272.023-4.907,0a1.368,1.368,0,0,1-1.212-1.507h7.3A1.338,1.338,0,0,1,106.464,122.1Zm9.143-3.815H92.479c-.647,0-.786-.138-.786-.785q0-7.224,0-14.447c0-.653.131-.783.785-.783h23.167c.494,0,.667.172.667.669q0,7.338,0,14.677C116.315,118.123,116.139,118.288,115.607,118.288Z" transform="translate(-84.333 -98.614)" fill="#6d6d6d"/><path id="Path_14" data-name="Path 14" d="M121.9,119.629c-.07.059-.143.113-.207.178-.618.616-1.234,1.234-1.867,1.868l-2.79-2.813-1.9,1.9c-.407-2.337-.808-4.644-1.217-7l6.974,1.212-1.782,1.775,2.793,2.831Z" transform="translate(-97.195 -105.204)" fill="#6d6d6d" fill-rule="evenodd"/></g></svg>