<svg xmlns="http://www.w3.org/2000/svg" width="26.027" height="25.791" viewBox="0 0 26.027 25.791">
                            <path id="icon-call" d="M142.381,23.33c.226-.89.39-1.8.7-2.664a18.116,18.116,0,0,1,1.128-2.386,1.987,1.987,0,0,1,3.444-.486c1.213,1.2,2.44,2.384,3.629,3.6a3.3,3.3,0,0,1,.691,1.1,1.543,1.543,0,0,1-.46,1.8c-.672.615-1.309,1.27-1.987,1.878a.519.519,0,0,0-.131.718,16.335,16.335,0,0,0,4.106,5.347,26.385,26.385,0,0,0,5.133,3.555.412.412,0,0,0,.6-.093c.581-.624,1.189-1.223,1.781-1.836a1.868,1.868,0,0,1,2.814-.043c1.4,1.408,2.772,2.841,4.144,4.275a1.472,1.472,0,0,1,.267,1.753,1.354,1.354,0,0,1-.2.343,6.468,6.468,0,0,1-5.7,2.569,20.646,20.646,0,0,1-11.326-5.277,28.309,28.309,0,0,1-7.854-10.86,11.9,11.9,0,0,1-.538-1.994,11.483,11.483,0,0,1-.142-1.269Z" transform="translate(-142.381 -17.008)" fill="#ffffff" fill-rule="evenodd"></path>
                        </svg>