<svg width="20" height="20" viewBox="0 0 20 20" fill="none" xmlns="http://www.w3.org/2000/svg">
<path d="M4.6875 10C4.6875 9.00913 4.96051 8.08088 5.4348 7.28608V3.91467H2.0634C0.725313 5.65249 0 7.77042 0 10C0 12.2296 0.725313 14.3476 2.0634 16.0854H5.4348V12.714C4.96051 11.9192 4.6875 10.9909 4.6875 10Z" fill="#FBBD00"/>
<path d="M10 15.3123L7.65625 17.656L10 19.9998C12.2296 19.9998 14.3475 19.2744 16.0854 17.9364V14.5685H12.7175C11.9158 15.0446 10.9836 15.3123 10 15.3123Z" fill="#0F9D58"/>
<path d="M5.43484 12.7139L2.06343 16.0853C2.32835 16.4294 2.61683 16.7589 2.92898 17.0711C4.81773 18.9598 7.32894 20 10 20V15.3125C8.06159 15.3125 6.36265 14.2687 5.43484 12.7139Z" fill="#31AA52"/>
<path d="M20 9.99979C20 9.3914 19.9449 8.78187 19.8363 8.18819L19.7483 7.70776H10V12.3953H14.7442C14.2835 13.3117 13.5752 14.0594 12.7175 14.5686L16.0853 17.9364C16.4294 17.6715 16.7589 17.383 17.0711 17.0709C18.9598 15.1821 20 12.6709 20 9.99979Z" fill="#3C79E6"/>
<path d="M13.7565 6.24348L14.1708 6.65777L17.4854 3.34324L17.0711 2.92895C15.1823 1.0402 12.6711 0 10 0L7.65625 2.34375L10 4.6875C11.419 4.6875 12.7531 5.24008 13.7565 6.24348Z" fill="#CF2D48"/>
<path d="M10.0001 4.6875V0C7.32898 0 4.81777 1.0402 2.92898 2.92891C2.61683 3.24105 2.32835 3.57055 2.06343 3.91465L5.43484 7.28605C6.36269 5.73125 8.06164 4.6875 10.0001 4.6875Z" fill="#EB4132"/>
</svg>
