<svg xmlns="http://www.w3.org/2000/svg" width="28.4" height="35.375" viewBox="0 0 28.4 35.375">
                            <path id="icon-calculator" d="M191.711,161.983q0-6.8.005-13.595a6.215,6.215,0,0,1,.13-1.308,3.29,3.29,0,0,1,3.129-2.742c1.089-.082,2.185-.073,3.278-.074q8.85-.01,17.7.01a6.313,6.313,0,0,1,1.749.261,3.058,3.058,0,0,1,2.3,2.792c.13,1.3.1,2.61.1,3.917q.011,12.042,0,24.086a7.426,7.426,0,0,1-.134,1.52,3.223,3.223,0,0,1-3.073,2.7c-1.292.082-2.59.074-3.885.075q-8.527.011-17.056-.006a7.005,7.005,0,0,1-1.69-.2,3.063,3.063,0,0,1-2.453-2.852c-.132-1.355-.09-2.729-.094-4.1-.011-3.5,0-6.993,0-10.49Zm25.536-14.361H194.571c0,.094,0,.153,0,.211.154,2,.32,4,.459,6.005.02.3.093.4.409.4q10.435-.013,20.868-.005c.5,0,.5,0,.53-.511.088-1.315.183-2.63.272-3.945C217.157,149.072,217.2,148.362,217.248,147.623ZM213.1,170.889h0c0,1.3-.009,2.593,0,3.89a1.5,1.5,0,0,0,1.508,1.64,11.8,11.8,0,0,0,1.815-.044,1.229,1.229,0,0,0,1.189-1.167,17.171,17.171,0,0,0,.067-1.743q.011-3.175,0-6.351a1.571,1.571,0,0,0-1.713-1.746c-.356-.009-.713-.012-1.07,0a1.613,1.613,0,0,0-1.8,1.814C213.1,168.415,213.1,169.652,213.1,170.889Zm-10.334,1.26v0c-.261,0-.525-.018-.783,0a1.442,1.442,0,0,0-1.475,1.328,8.91,8.91,0,0,0,0,1.92,1.31,1.31,0,0,0,1.275,1.268,9.1,9.1,0,0,0,1.918.009,1.273,1.273,0,0,0,1.305-1.334A8.869,8.869,0,0,0,205,173.5a1.427,1.427,0,0,0-1.484-1.346C203.271,172.138,203.021,172.15,202.77,172.15Zm-.013-7.208v-.008c-.274,0-.547-.013-.82,0a1.38,1.38,0,0,0-1.392,1.2,9.156,9.156,0,0,0-.02,2.092,1.314,1.314,0,0,0,1.344,1.233,13.672,13.672,0,0,0,1.921-.01,1.238,1.238,0,0,0,1.2-1.166,11.044,11.044,0,0,0,.041-1.884,1.43,1.43,0,0,0-1.309-1.449A8.446,8.446,0,0,0,202.757,164.942Zm-4.047,9.523h0c0-.262.007-.523,0-.784a1.387,1.387,0,0,0-1.235-1.465,8.479,8.479,0,0,0-1.986-.023,1.363,1.363,0,0,0-1.309,1.4,12.076,12.076,0,0,0,.014,1.848,1.281,1.281,0,0,0,1.157,1.218,10.771,10.771,0,0,0,2.128.012,1.335,1.335,0,0,0,1.227-1.384C198.722,175.013,198.71,174.738,198.71,174.465Zm-2.26-12.216v0c.274,0,.547.008.821,0a1.414,1.414,0,0,0,1.437-1.42q.031-.821,0-1.641a1.411,1.411,0,0,0-1.262-1.448,12.57,12.57,0,0,0-1.99,0,1.371,1.371,0,0,0-1.26,1.256,13.509,13.509,0,0,0,0,1.988,1.39,1.39,0,0,0,1.363,1.267C195.854,162.261,196.153,162.248,196.45,162.248Zm-.011,2.645v.038c-.274,0-.548-.013-.821,0A1.441,1.441,0,0,0,194.2,166.2a13.268,13.268,0,0,0,0,2.023,1.331,1.331,0,0,0,1.27,1.234,14,14,0,0,0,1.921,0,1.354,1.354,0,0,0,1.317-1.376c.026-.569.028-1.141,0-1.71a1.386,1.386,0,0,0-1.166-1.381A8.258,8.258,0,0,0,196.439,164.894Zm18.95-2.645v0c.3,0,.6.016.891,0a1.308,1.308,0,0,0,1.346-1.256,10.544,10.544,0,0,0,.039-1.812,1.422,1.422,0,0,0-1.487-1.459,12.251,12.251,0,0,0-1.741.015,1.319,1.319,0,0,0-1.249,1.134,10.632,10.632,0,0,0-.008,2.194,1.362,1.362,0,0,0,1.388,1.19C214.841,162.258,215.115,162.248,215.389,162.248Zm-4.013-2.227h-.028c0-.309.016-.62,0-.927a1.406,1.406,0,0,0-1.274-1.36,13.043,13.043,0,0,0-1.953,0,1.409,1.409,0,0,0-1.29,1.347,16.211,16.211,0,0,0,0,1.812,1.415,1.415,0,0,0,1.365,1.348c.593.029,1.19.026,1.782,0a1.32,1.32,0,0,0,1.334-1.156A8.129,8.129,0,0,0,211.375,160.021Zm-8.6,2.226c.285,0,.572.013.856,0A1.31,1.31,0,0,0,204.991,161a11.809,11.809,0,0,0,0-2.024,1.34,1.34,0,0,0-1.329-1.249c-.591-.03-1.186-.029-1.777,0a1.329,1.329,0,0,0-1.336,1.163,9.878,9.878,0,0,0,0,2.195,1.349,1.349,0,0,0,1.373,1.164C202.206,162.259,202.492,162.247,202.777,162.247Zm8.571,12.188h0c0-.262.009-.522,0-.784a1.37,1.37,0,0,0-1.22-1.435,8.588,8.588,0,0,0-2.019-.016,1.4,1.4,0,0,0-1.295,1.454,16.075,16.075,0,0,0,.005,1.67,1.333,1.333,0,0,0,1.2,1.333,10.229,10.229,0,0,0,2.09,0,1.293,1.293,0,0,0,1.228-1.371C211.359,175.006,211.348,174.721,211.348,174.436Zm.043-7.2-.041,0c0-.284.011-.571,0-.855a1.458,1.458,0,0,0-1.435-1.439c-.546-.026-1.094-.025-1.639,0a1.472,1.472,0,0,0-1.452,1.429,16.847,16.847,0,0,0,0,1.742,1.37,1.37,0,0,0,1.282,1.343,13.024,13.024,0,0,0,2.025-.009,1.194,1.194,0,0,0,1.141-1.009A11.678,11.678,0,0,0,211.39,167.233Z" transform="translate(-191.705 -144.26)" fill="#ffffff" fill-rule="evenodd"></path>
                        </svg>