<svg xmlns="http://www.w3.org/2000/svg" width="39.343" height="25.791"><g fill="#fff"><path data-name="Path 13" d="M38.557 21.277c-.86-.453-1.7-.943-2.56-1.394a.6.6 0 01-.365-.626q.014-7.97.006-15.939A3.1 3.1 0 0032.327.003H16.311c-3.15 0-6.3-.006-9.448 0a3.012 3.012 0 00-2.967 2.072 4.89 4.89 0 00-.184 1.435q-.019 7.892 0 15.785a.576.576 0 01-.326.577c-.765.439-1.507.919-2.277 1.35a2.117 2.117 0 00-1.108 1.2v1.23a1.176 1.176 0 01.076.174 2.426 2.426 0 002.49 1.96q5.528.007 11.056 0 11.4 0 22.8-.013a4.414 4.414 0 001.593-.3 2.154 2.154 0 001.228-1.534c.027-.1.063-.191.095-.287v-1.383a1.86 1.86 0 00-.782-.992zm-16.426 2.209c-1.636.025-3.272.023-4.907 0a1.368 1.368 0 01-1.212-1.507h7.3a1.338 1.338 0 01-1.181 1.507zm9.143-3.815H8.146c-.647 0-.786-.138-.786-.785V4.439c0-.653.131-.783.785-.783h23.167c.494 0 .667.172.667.669v14.677c.003.507-.173.672-.705.672z"/><path data-name="Path 14" d="M24.705 14.425c-.07.059-.143.113-.207.178-.618.616-1.234 1.234-1.867 1.868l-2.79-2.813-1.9 1.9-1.217-7 6.974 1.212-1.782 1.775 2.793 2.831z" fill-rule="evenodd"/></g></svg>