<svg xmlns="http://www.w3.org/2000/svg" width="21.758" height="28.214" viewBox="0 0 21.758 28.214">
                            <path id="icon-pin" d="M207.9,23.311h1.433c.318.041.637.066.952.127a10.731,10.731,0,0,1,8.822,7.925,8.277,8.277,0,0,1-.223,5.691,24.282,24.282,0,0,1-1.057,2.325,60.96,60.96,0,0,1-9.155,12.146h-.165a2.008,2.008,0,0,0-.157-.213,78.506,78.506,0,0,1-5.306-6.328,38.808,38.808,0,0,1-4.312-6.957,9.127,9.127,0,0,1-.688-6.372,10.727,10.727,0,0,1,7.938-8.009A18.864,18.864,0,0,1,207.9,23.311ZM202.546,33.6a6.072,6.072,0,1,0,6.058-6.1A6.084,6.084,0,0,0,202.546,33.6Z" transform="translate(-197.748 -23.311)" fill="#ffffff"></path>
                        </svg>